<svg width="15" height="15" viewBox="0 0 15 15" fill="none" xmlns="http://www.w3.org/2000/svg">
<path d="M12.0779 5.91797C12.0779 5.91797 11.7385 10.1273 11.5416 11.9005C11.4479 12.7473 10.9247 13.2436 10.0679 13.2592C8.43725 13.2886 6.80475 13.2905 5.17475 13.2561C4.35037 13.2392 3.836 12.7367 3.74412 11.9048C3.546 10.1161 3.2085 5.91797 3.2085 5.91797" stroke="white" stroke-linecap="round" stroke-linejoin="round"/>
<path d="M12.9425 3.89844H2.34375" stroke="white" stroke-linecap="round" stroke-linejoin="round"/>
<path d="M10.9001 3.89938C10.4095 3.89938 9.98699 3.5525 9.89074 3.07187L9.73887 2.31188C9.64512 1.96125 9.32762 1.71875 8.96574 1.71875H6.32012C5.95824 1.71875 5.64074 1.96125 5.54699 2.31188L5.39512 3.07187C5.29887 3.5525 4.87637 3.89938 4.38574 3.89938" stroke="white" stroke-linecap="round" stroke-linejoin="round"/>
</svg>
