<svg width="24" height="24" viewBox="0 0 24 24" fill="none" xmlns="http://www.w3.org/2000/svg">
<path fill-rule="evenodd" clip-rule="evenodd" d="M8.59766 16.5595C8.18366 16.5595 7.84766 16.2235 7.84766 15.8095V12.0645C7.84766 11.6505 8.18366 11.3145 8.59766 11.3145C9.01166 11.3145 9.34766 11.6505 9.34766 12.0645V15.8095C9.34766 16.2235 9.01166 16.5595 8.59766 16.5595Z" fill="white"/>
<path fill-rule="evenodd" clip-rule="evenodd" d="M10.5085 14.6855H6.6875C6.2735 14.6855 5.9375 14.3495 5.9375 13.9355C5.9375 13.5215 6.2735 13.1855 6.6875 13.1855H10.5085C10.9225 13.1855 11.2585 13.5215 11.2585 13.9355C11.2585 14.3495 10.9225 14.6855 10.5085 14.6855Z" fill="white"/>
<path fill-rule="evenodd" clip-rule="evenodd" d="M15.1158 12.9277H15.0088C14.5948 12.9277 14.2588 12.5917 14.2588 12.1777C14.2588 11.7637 14.5948 11.4277 15.0088 11.4277H15.1158C15.5298 11.4277 15.8658 11.7637 15.8658 12.1777C15.8658 12.5917 15.5298 12.9277 15.1158 12.9277Z" fill="white"/>
<path fill-rule="evenodd" clip-rule="evenodd" d="M16.9293 16.502H16.8223C16.4083 16.502 16.0723 16.166 16.0723 15.752C16.0723 15.338 16.4083 15.002 16.8223 15.002H16.9293C17.3433 15.002 17.6793 15.338 17.6793 15.752C17.6793 16.166 17.3433 16.502 16.9293 16.502Z" fill="white"/>
<mask id="mask0_1110_55722" style="mask-type:alpha" maskUnits="userSpaceOnUse" x="7" y="1" width="7" height="6">
<path fill-rule="evenodd" clip-rule="evenodd" d="M7.07178 1H13.1118V6.5879H7.07178V1Z" fill="white"/>
</mask>
<g mask="url(#mask0_1110_55722)">
<path fill-rule="evenodd" clip-rule="evenodd" d="M12.3618 6.588C11.9478 6.588 11.6118 6.252 11.6118 5.838V5.163C11.6088 4.439 10.9948 3.844 10.2438 3.841H9.18978C8.02278 3.841 7.07178 2.903 7.07178 1.75C7.07178 1.336 7.40778 1 7.82178 1C8.23678 1 8.57178 1.336 8.57178 1.75C8.57178 2.076 8.84878 2.341 9.18978 2.341H10.2468C11.8198 2.346 13.1048 3.61 13.1118 5.159V5.838C13.1118 6.252 12.7758 6.588 12.3618 6.588Z" fill="white"/>
</g>
<mask id="mask1_1110_55722" style="mask-type:alpha" maskUnits="userSpaceOnUse" x="1" y="5" width="22" height="18">
<path fill-rule="evenodd" clip-rule="evenodd" d="M1 5.37305H22.4998V22.4998H1V5.37305Z" fill="white"/>
</mask>
<g mask="url(#mask1_1110_55722)">
<path fill-rule="evenodd" clip-rule="evenodd" d="M11.701 6.8728C10.225 6.8728 8.767 6.8858 7.335 6.9098C4.528 6.9098 2.5 8.8878 2.5 11.6118V16.2618C2.5 18.9848 4.528 20.9628 7.323 20.9628C10.27 21.0118 13.241 21.0118 16.165 20.9628H16.178C18.972 20.9628 21 18.9848 21 16.2618V11.6118C21 8.8878 18.972 6.9098 16.178 6.9098C14.674 6.8858 13.179 6.8728 11.701 6.8728ZM11.754 22.4998C10.271 22.4998 8.786 22.4868 7.31 22.4628C3.659 22.4628 1 19.8538 1 16.2618V11.6118C1 8.0188 3.659 5.4098 7.323 5.4098C10.192 5.3608 13.18 5.3608 16.19 5.4098C19.841 5.4098 22.5 8.0188 22.5 11.6118V16.2618C22.5 19.8518 19.845 22.4598 16.184 22.4628C14.716 22.4868 13.236 22.4998 11.754 22.4998Z" fill="white"/>
</g>
</svg>
