<svg width="24" height="24" viewBox="0 0 24 24" fill="none" xmlns="http://www.w3.org/2000/svg">
<g id="Iconly/Light-Outline/2 User">
<g id="2 User">
<g id="Group 3">
<mask id="mask0_1110_55692" style="mask-type:alpha" maskUnits="userSpaceOnUse" x="2" y="13" width="16" height="9">
<path id="Clip 2" fill-rule="evenodd" clip-rule="evenodd" d="M2 13.957H17.1838V21.0566H2V13.957Z" fill="white"/>
</mask>
<g mask="url(#mask0_1110_55692)">
<path id="Fill 1" fill-rule="evenodd" clip-rule="evenodd" d="M9.592 15.457C6.813 15.457 3.5 15.814 3.5 17.519C3.5 18.871 5.55 19.557 9.592 19.557C13.634 19.557 15.684 18.864 15.684 17.499C15.684 16.144 13.634 15.457 9.592 15.457ZM9.592 21.057C7.516 21.057 2 21.057 2 17.519C2 13.957 7.714 13.957 9.592 13.957C12.851 13.957 17.184 14.324 17.184 17.499C17.184 21.057 11.47 21.057 9.592 21.057Z" fill="white"/>
</g>
</g>
<path id="Fill 4" fill-rule="evenodd" clip-rule="evenodd" d="M9.59157 3.5C7.58657 3.5 5.95557 5.131 5.95557 7.135C5.95557 9.139 7.58657 10.77 9.59157 10.77H9.62257C10.5866 10.766 11.4946 10.387 12.1756 9.7C12.8576 9.015 13.2306 8.104 13.2266 7.138C13.2266 5.131 11.5956 3.5 9.59157 3.5ZM9.59157 12.27C6.75957 12.27 4.45557 9.966 4.45557 7.135C4.45557 4.304 6.75957 2 9.59157 2C12.4226 2 14.7266 4.304 14.7266 7.135C14.7326 8.499 14.2036 9.787 13.2396 10.757C12.2776 11.728 10.9926 12.265 9.62557 12.27H9.59157Z" fill="white"/>
<path id="Fill 6" fill-rule="evenodd" clip-rule="evenodd" d="M16.4822 11.1327C16.1142 11.1327 15.7932 10.8617 15.7402 10.4867C15.6832 10.0767 15.9682 9.69674 16.3782 9.63974C17.6262 9.46474 18.5682 8.38174 18.5702 7.11974C18.5702 5.86574 17.6722 4.80774 16.4372 4.60574C16.0282 4.53774 15.7512 4.15274 15.8182 3.74374C15.8852 3.33474 16.2722 3.05974 16.6792 3.12474C18.6442 3.44674 20.0702 5.12774 20.0702 7.12074C20.0662 9.12574 18.5692 10.8477 16.5872 11.1257C16.5522 11.1307 16.5172 11.1327 16.4822 11.1327Z" fill="white"/>
<g id="Group 10">
<mask id="mask1_1110_55692" style="mask-type:alpha" maskUnits="userSpaceOnUse" x="17" y="13" width="5" height="6">
<path id="Clip 9" fill-rule="evenodd" clip-rule="evenodd" d="M17.8452 13.4824H21.979V18.46H17.8452V13.4824Z" fill="white"/>
</mask>
<g mask="url(#mask1_1110_55692)">
<path id="Fill 8" fill-rule="evenodd" clip-rule="evenodd" d="M19.8955 18.46C19.5925 18.46 19.3075 18.275 19.1945 17.976C19.0475 17.589 19.2425 17.155 19.6295 17.009C20.4795 16.687 20.4795 16.294 20.4795 16.126C20.4795 15.559 19.8085 15.171 18.4855 14.974C18.0755 14.912 17.7925 14.53 17.8535 14.121C17.9155 13.711 18.3045 13.436 18.7065 13.489C21.4125 13.894 21.9795 15.147 21.9795 16.126C21.9795 16.855 21.6645 17.842 20.1615 18.411C20.0745 18.444 19.9845 18.46 19.8955 18.46Z" fill="white"/>
</g>
</g>
</g>
</g>
</svg>
