<svg width="27" height="28" viewBox="0 0 27 28" fill="none" xmlns="http://www.w3.org/2000/svg">
<mask id="mask0_1418_32972" style="mask-type:alpha" maskUnits="userSpaceOnUse" x="3" y="1" width="22" height="20">
<path fill-rule="evenodd" clip-rule="evenodd" d="M3.375 1.41016H24.184V20.9267H3.375V1.41016Z" fill="white"/>
</mask>
<g mask="url(#mask0_1418_32972)">
<path fill-rule="evenodd" clip-rule="evenodd" d="M13.7779 3.09766C9.84602 3.09766 7.10552 6.17791 7.10552 8.94203C7.10552 11.2809 6.45639 12.362 5.88264 13.316C5.42252 14.0822 5.05914 14.6874 5.05914 16.0025C5.24702 18.1243 6.64764 19.2392 13.7779 19.2392C20.8688 19.2392 22.3133 18.0748 22.5 15.9294C22.4966 14.6874 22.1333 14.0822 21.6731 13.316C21.0994 12.362 20.4503 11.2809 20.4503 8.94203C20.4503 6.17791 17.7098 3.09766 13.7779 3.09766ZM13.7779 20.9267C8.51739 20.9267 3.76314 20.5554 3.37502 16.0745C3.37164 14.2205 3.93752 13.2778 4.43702 12.4475C4.94214 11.606 5.41802 10.8129 5.41802 8.94203C5.41802 5.30491 8.77726 1.41016 13.7779 1.41016C18.7785 1.41016 22.1378 5.30491 22.1378 8.94203C22.1378 10.8129 22.6136 11.606 23.1188 12.4475C23.6183 13.2778 24.1841 14.2205 24.1841 16.0025C23.7915 20.5554 19.0384 20.9267 13.7779 20.9267Z" fill="white"/>
</g>
<path fill-rule="evenodd" clip-rule="evenodd" d="M13.7231 25.5986H13.7209C12.4598 25.5974 11.2661 25.0417 10.3605 24.0326C10.0489 23.6872 10.077 23.1528 10.4235 22.8423C10.77 22.5296 11.3033 22.5577 11.6149 22.9053C12.1976 23.5544 12.9458 23.9111 13.722 23.9111H13.7231C14.5028 23.9111 15.2543 23.5544 15.8381 22.9042C16.1509 22.5588 16.6841 22.5307 17.0295 22.8423C17.376 23.1539 17.4041 23.6883 17.0925 24.0337C16.1835 25.0428 14.9876 25.5986 13.7231 25.5986Z" fill="white"/>
</svg>
