<svg width="24" height="24" viewBox="0 0 24 24" fill="none" xmlns="http://www.w3.org/2000/svg">
<g id="Iconly/Light-Outline/Shield Done">
<g id="Shield Done">
<g id="Group 3">
<mask id="mask0_1110_55713" style="mask-type:alpha" maskUnits="userSpaceOnUse" x="4" y="2" width="17" height="21">
<path id="Clip 2" fill-rule="evenodd" clip-rule="evenodd" d="M4 2H20.9668V22.3556H4V2Z" fill="white"/>
</mask>
<g mask="url(#mask0_1110_55713)">
<path id="Fill 1" fill-rule="evenodd" clip-rule="evenodd" d="M12.4834 3.5C11.6354 3.5 6.28541 5.384 5.66841 5.899C5.48641 6.082 5.47941 6.4 5.51841 8.529C5.53641 9.555 5.56141 10.949 5.56141 12.879C5.56141 18.08 11.2834 20.389 12.4824 20.814C13.6804 20.387 19.4054 18.065 19.4054 12.879C19.4054 10.947 19.4304 9.552 19.4494 8.526C19.4874 6.399 19.4804 6.081 19.2874 5.889C18.6824 5.384 13.3314 3.5 12.4834 3.5ZM12.4834 22.356C12.4104 22.356 12.3374 22.346 12.2664 22.324C11.9314 22.223 4.06141 19.761 4.06141 12.879C4.06141 10.962 4.03641 9.575 4.01841 8.557C3.97241 6.014 3.96241 5.484 4.61941 4.828C5.40441 4.041 11.3494 2 12.4834 2C13.6164 2 19.5614 4.041 20.3484 4.828C21.0044 5.484 20.9944 6.014 20.9484 8.554C20.9304 9.572 20.9054 10.959 20.9054 12.879C20.9054 19.761 13.0354 22.223 12.7004 22.324C12.6294 22.346 12.5564 22.356 12.4834 22.356Z" fill="white"/>
</g>
</g>
<path id="Fill 4" fill-rule="evenodd" clip-rule="evenodd" d="M11.7771 14.5189C11.5781 14.5189 11.3871 14.4399 11.2461 14.2989L9.35413 12.4049C9.06213 12.1119 9.06213 11.6359 9.35513 11.3439C9.64713 11.0509 10.1231 11.0509 10.4161 11.3439L11.7771 12.7069L15.1451 9.33889C15.4381 9.04589 15.9121 9.04589 16.2051 9.33889C16.4981 9.63189 16.4981 10.1069 16.2051 10.3999L12.3071 14.2989C12.1671 14.4399 11.9761 14.5189 11.7771 14.5189Z" fill="white"/>
</g>
</g>
</svg>
