<svg width="30" height="24" viewBox="0 0 30 24" fill="none" xmlns="http://www.w3.org/2000/svg">
<path fill-rule="evenodd" clip-rule="evenodd" d="M7.6413 4.5H14.8814C17.9089 4.5 20.0227 6.16904 20.0227 8.56091V15.4391C20.0227 17.831 17.9089 19.5 14.8814 19.5H7.6413C4.61377 19.5 2.5 17.831 2.5 15.4391V8.56091C2.5 6.16904 4.61377 4.5 7.6413 4.5ZM24.9475 6.87898C25.4962 6.65563 26.14 6.67898 26.6637 6.94294C27.1875 7.20589 27.5 7.66274 27.5 8.16223V15.8384C27.5 16.3389 27.1875 16.7947 26.6637 17.0577C26.3775 17.2008 26.0575 17.2739 25.735 17.2739C25.4662 17.2739 25.1975 17.2231 24.9462 17.1206L23.095 16.3734C22.4099 16.0952 21.9849 15.5369 21.9849 14.9165V9.08305C21.9849 8.46173 22.4099 7.90335 23.095 7.62721L24.9475 6.87898Z" fill="#1363DF"/>
</svg>
