<svg width="170" height="23" viewBox="0 0 170 23" fill="none" xmlns="http://www.w3.org/2000/svg">
<rect opacity="0.5" width="170" height="23" rx="2" fill="#1363DF"/>
<path d="M50.336 5.78444L47.18 14.1484H45.92L42.764 5.78444H43.928L46.556 12.9964L49.184 5.78444H50.336ZM52.0974 6.50444C51.8894 6.50444 51.7134 6.43244 51.5694 6.28844C51.4254 6.14444 51.3534 5.96844 51.3534 5.76044C51.3534 5.55244 51.4254 5.37644 51.5694 5.23244C51.7134 5.08844 51.8894 5.01644 52.0974 5.01644C52.2974 5.01644 52.4654 5.08844 52.6014 5.23244C52.7454 5.37644 52.8174 5.55244 52.8174 5.76044C52.8174 5.96844 52.7454 6.14444 52.6014 6.28844C52.4654 6.43244 52.2974 6.50444 52.0974 6.50444ZM52.6254 7.57244V14.1484H51.5334V7.57244H52.6254ZM60.4865 10.6084C60.4865 10.8164 60.4745 11.0364 60.4505 11.2684H55.1945C55.2345 11.9164 55.4545 12.4244 55.8545 12.7924C56.2625 13.1524 56.7545 13.3324 57.3305 13.3324C57.8025 13.3324 58.1945 13.2244 58.5065 13.0084C58.8265 12.7844 59.0505 12.4884 59.1785 12.1204H60.3545C60.1785 12.7524 59.8265 13.2684 59.2985 13.6684C58.7705 14.0604 58.1145 14.2564 57.3305 14.2564C56.7065 14.2564 56.1465 14.1164 55.6505 13.8364C55.1625 13.5564 54.7785 13.1604 54.4985 12.6484C54.2185 12.1284 54.0785 11.5284 54.0785 10.8484C54.0785 10.1684 54.2145 9.57244 54.4865 9.06044C54.7585 8.54844 55.1385 8.15644 55.6265 7.88444C56.1225 7.60444 56.6905 7.46444 57.3305 7.46444C57.9545 7.46444 58.5065 7.60044 58.9865 7.87244C59.4665 8.14444 59.8345 8.52044 60.0905 9.00044C60.3545 9.47244 60.4865 10.0084 60.4865 10.6084ZM59.3585 10.3804C59.3585 9.96444 59.2665 9.60844 59.0825 9.31244C58.8985 9.00844 58.6465 8.78044 58.3265 8.62844C58.0145 8.46844 57.6665 8.38844 57.2825 8.38844C56.7305 8.38844 56.2585 8.56444 55.8665 8.91644C55.4825 9.26844 55.2625 9.75644 55.2065 10.3804H59.3585ZM70.6879 7.57244L68.6359 14.1484H67.5079L65.9239 8.92844L64.3399 14.1484H63.2119L61.1479 7.57244H62.2639L63.7759 13.0924L65.4079 7.57244H66.5239L68.1199 13.1044L69.6079 7.57244H70.6879ZM76.0629 5.78444V14.1484H74.9709V5.78444H76.0629ZM81.128 7.45244C81.928 7.45244 82.576 7.69644 83.072 8.18444C83.568 8.66444 83.816 9.36044 83.816 10.2724V14.1484H82.736V10.4284C82.736 9.77244 82.572 9.27244 82.244 8.92844C81.916 8.57644 81.468 8.40044 80.9 8.40044C80.324 8.40044 79.864 8.58044 79.52 8.94044C79.184 9.30044 79.016 9.82444 79.016 10.5124V14.1484H77.924V7.57244H79.016V8.50844C79.232 8.17244 79.524 7.91244 79.892 7.72844C80.268 7.54444 80.68 7.45244 81.128 7.45244ZM87.9278 14.2564C87.4238 14.2564 86.9718 14.1724 86.5718 14.0044C86.1718 13.8284 85.8558 13.5884 85.6238 13.2844C85.3918 12.9724 85.2638 12.6164 85.2398 12.2164H86.3678C86.3998 12.5444 86.5518 12.8124 86.8238 13.0204C87.1038 13.2284 87.4678 13.3324 87.9158 13.3324C88.3318 13.3324 88.6598 13.2404 88.8998 13.0564C89.1398 12.8724 89.2598 12.6404 89.2598 12.3604C89.2598 12.0724 89.1318 11.8604 88.8758 11.7244C88.6198 11.5804 88.2238 11.4404 87.6878 11.3044C87.1998 11.1764 86.7998 11.0484 86.4878 10.9204C86.1838 10.7844 85.9198 10.5884 85.6958 10.3324C85.4798 10.0684 85.3718 9.72444 85.3718 9.30044C85.3718 8.96444 85.4718 8.65644 85.6718 8.37644C85.8718 8.09644 86.1558 7.87644 86.5238 7.71644C86.8918 7.54844 87.3118 7.46444 87.7838 7.46444C88.5118 7.46444 89.0998 7.64844 89.5478 8.01644C89.9958 8.38444 90.2358 8.88844 90.2678 9.52844H89.1758C89.1518 9.18444 89.0118 8.90844 88.7558 8.70044C88.5078 8.49244 88.1718 8.38844 87.7478 8.38844C87.3558 8.38844 87.0438 8.47244 86.8118 8.64044C86.5798 8.80844 86.4638 9.02844 86.4638 9.30044C86.4638 9.51644 86.5318 9.69644 86.6678 9.84044C86.8118 9.97644 86.9878 10.0884 87.1958 10.1764C87.4118 10.2564 87.7078 10.3484 88.0838 10.4524C88.5558 10.5804 88.9398 10.7084 89.2358 10.8364C89.5318 10.9564 89.7838 11.1404 89.9918 11.3884C90.2078 11.6364 90.3198 11.9604 90.3278 12.3604C90.3278 12.7204 90.2278 13.0444 90.0278 13.3324C89.8278 13.6204 89.5438 13.8484 89.1758 14.0164C88.8158 14.1764 88.3998 14.2564 87.9278 14.2564ZM92.4333 6.50444C92.2253 6.50444 92.0493 6.43244 91.9053 6.28844C91.7613 6.14444 91.6893 5.96844 91.6893 5.76044C91.6893 5.55244 91.7613 5.37644 91.9053 5.23244C92.0493 5.08844 92.2253 5.01644 92.4333 5.01644C92.6333 5.01644 92.8013 5.08844 92.9373 5.23244C93.0813 5.37644 93.1533 5.55244 93.1533 5.76044C93.1533 5.96844 93.0813 6.14444 92.9373 6.28844C92.8013 6.43244 92.6333 6.50444 92.4333 6.50444ZM92.9613 7.57244V14.1484H91.8693V7.57244H92.9613ZM97.5344 7.46444C98.1024 7.46444 98.5984 7.58844 99.0224 7.83644C99.4544 8.08444 99.7744 8.39644 99.9824 8.77244V7.57244H101.086V14.2924C101.086 14.8924 100.958 15.4244 100.702 15.8884C100.446 16.3604 100.078 16.7284 99.5984 16.9924C99.1264 17.2564 98.5744 17.3884 97.9424 17.3884C97.0784 17.3884 96.3584 17.1844 95.7824 16.7764C95.2064 16.3684 94.8664 15.8124 94.7624 15.1084H95.8424C95.9624 15.5084 96.2104 15.8284 96.5864 16.0684C96.9624 16.3164 97.4144 16.4404 97.9424 16.4404C98.5424 16.4404 99.0304 16.2524 99.4064 15.8764C99.7904 15.5004 99.9824 14.9724 99.9824 14.2924V12.9124C99.7664 13.2964 99.4464 13.6164 99.0224 13.8724C98.5984 14.1284 98.1024 14.2564 97.5344 14.2564C96.9504 14.2564 96.4184 14.1124 95.9384 13.8244C95.4664 13.5364 95.0944 13.1324 94.8224 12.6124C94.5504 12.0924 94.4144 11.5004 94.4144 10.8364C94.4144 10.1644 94.5504 9.57644 94.8224 9.07244C95.0944 8.56044 95.4664 8.16444 95.9384 7.88444C96.4184 7.60444 96.9504 7.46444 97.5344 7.46444ZM99.9824 10.8484C99.9824 10.3524 99.8824 9.92044 99.6824 9.55244C99.4824 9.18444 99.2104 8.90444 98.8664 8.71244C98.5304 8.51244 98.1584 8.41244 97.7504 8.41244C97.3424 8.41244 96.9704 8.50844 96.6344 8.70044C96.2984 8.89244 96.0304 9.17244 95.8304 9.54044C95.6304 9.90844 95.5304 10.3404 95.5304 10.8364C95.5304 11.3404 95.6304 11.7804 95.8304 12.1564C96.0304 12.5244 96.2984 12.8084 96.6344 13.0084C96.9704 13.2004 97.3424 13.2964 97.7504 13.2964C98.1584 13.2964 98.5304 13.2004 98.8664 13.0084C99.2104 12.8084 99.4824 12.5244 99.6824 12.1564C99.8824 11.7804 99.9824 11.3444 99.9824 10.8484ZM106.196 7.45244C106.692 7.45244 107.14 7.56044 107.54 7.77644C107.94 7.98444 108.252 8.30044 108.476 8.72444C108.708 9.14844 108.824 9.66444 108.824 10.2724V14.1484H107.744V10.4284C107.744 9.77244 107.58 9.27244 107.252 8.92844C106.924 8.57644 106.476 8.40044 105.908 8.40044C105.332 8.40044 104.872 8.58044 104.528 8.94044C104.192 9.30044 104.024 9.82444 104.024 10.5124V14.1484H102.932V5.26844H104.024V8.50844C104.24 8.17244 104.536 7.91244 104.912 7.72844C105.296 7.54444 105.724 7.45244 106.196 7.45244ZM111.94 8.47244V12.3484C111.94 12.6684 112.008 12.8964 112.144 13.0324C112.28 13.1604 112.516 13.2244 112.852 13.2244H113.656V14.1484H112.672C112.064 14.1484 111.608 14.0084 111.304 13.7284C111 13.4484 110.848 12.9884 110.848 12.3484V8.47244H109.996V7.57244H110.848V5.91644H111.94V7.57244H113.656V8.47244H111.94ZM117.307 14.2564C116.803 14.2564 116.351 14.1724 115.951 14.0044C115.551 13.8284 115.235 13.5884 115.003 13.2844C114.771 12.9724 114.643 12.6164 114.619 12.2164H115.747C115.779 12.5444 115.931 12.8124 116.203 13.0204C116.483 13.2284 116.847 13.3324 117.295 13.3324C117.711 13.3324 118.039 13.2404 118.279 13.0564C118.519 12.8724 118.639 12.6404 118.639 12.3604C118.639 12.0724 118.511 11.8604 118.255 11.7244C117.999 11.5804 117.603 11.4404 117.067 11.3044C116.579 11.1764 116.179 11.0484 115.867 10.9204C115.563 10.7844 115.299 10.5884 115.075 10.3324C114.859 10.0684 114.751 9.72444 114.751 9.30044C114.751 8.96444 114.851 8.65644 115.051 8.37644C115.251 8.09644 115.535 7.87644 115.903 7.71644C116.271 7.54844 116.691 7.46444 117.163 7.46444C117.891 7.46444 118.479 7.64844 118.927 8.01644C119.375 8.38444 119.615 8.88844 119.647 9.52844H118.555C118.531 9.18444 118.391 8.90844 118.135 8.70044C117.887 8.49244 117.551 8.38844 117.127 8.38844C116.735 8.38844 116.423 8.47244 116.191 8.64044C115.959 8.80844 115.843 9.02844 115.843 9.30044C115.843 9.51644 115.911 9.69644 116.047 9.84044C116.191 9.97644 116.367 10.0884 116.575 10.1764C116.791 10.2564 117.087 10.3484 117.463 10.4524C117.935 10.5804 118.319 10.7084 118.615 10.8364C118.911 10.9564 119.163 11.1404 119.371 11.3884C119.587 11.6364 119.699 11.9604 119.707 12.3604C119.707 12.7204 119.607 13.0444 119.407 13.3324C119.207 13.6204 118.923 13.8484 118.555 14.0164C118.195 14.1764 117.779 14.2564 117.307 14.2564Z" fill="white"/>
</svg>
